<?xml version="1.0" encoding="utf-8"?>
<!-- Generator: Adobe Illustrator 21.1.0, SVG Export Plug-In . SVG Version: 6.00 Build 0)  -->
<svg version="1.1" id="Layer_1" xmlns="http://www.w3.org/2000/svg" xmlns:xlink="http://www.w3.org/1999/xlink" x="0px" y="0px"
	 viewBox="0 0 1366 768" style="enable-background:new 0 0 1366 768;" xml:space="preserve">
<g>
	<path d="M484.9,245.8c0-5.2-1.3-9.2-4-11.9s-7.5-5.5-14.6-8.3c-12.9-4.9-22.1-10.6-27.8-17.2c-5.6-6.6-8.5-14.3-8.5-23.2
		c0-10.8,3.8-19.5,11.5-26.1s17.4-9.8,29.2-9.8c7.9,0,14.9,1.7,21.1,5s10.9,8,14.2,14.1c3.3,6.1,5,12.9,5,20.6h-25.8
		c0-6-1.3-10.6-3.8-13.7c-2.6-3.1-6.2-4.7-11.1-4.7c-4.5,0-8.1,1.3-10.6,4s-3.8,6.3-3.8,10.8c0,3.5,1.4,6.7,4.2,9.6
		c2.8,2.9,7.8,5.8,15,8.9c12.5,4.5,21.6,10.1,27.3,16.7c5.7,6.6,8.5,15,8.5,25.1c0,11.2-3.6,19.9-10.7,26.2s-16.8,9.4-29,9.4
		c-8.3,0-15.8-1.7-22.7-5.1c-6.8-3.4-12.2-8.3-16-14.6c-3.9-6.3-5.8-13.8-5.8-22.5h26c0,7.4,1.4,12.8,4.3,16.1c2.9,3.4,7.6,5,14.1,5
		C480.4,260.2,484.9,255.4,484.9,245.8z"/>
	<path d="M601,173h-32v106h-26V173h-31v-22h89V173z"/>
	<path d="M693,226.5c0,17.1-4,30.4-12.1,39.9s-19.3,14.2-33.7,14.2c-14.3,0-25.6-4.7-33.7-14.1c-8.2-9.4-12.3-22.5-12.4-39.4v-21.8
		c0-17.5,4.1-31.2,12.2-41c8.1-9.8,19.4-14.8,33.8-14.8c14.2,0,25.4,4.8,33.6,14.5c8.2,9.7,12.3,23.2,12.4,40.7L693,226.5L693,226.5
		z M668,204.9c0-11.7-1.7-20.4-5-26.1c-3.3-5.7-8.5-8.5-15.5-8.5c-6.9,0-12.1,2.7-15.4,8.2c-3.3,5.5-5,13.8-5.2,25v23
		c0,11.3,1.7,19.7,5.1,25c3.4,5.4,8.6,8,15.7,8c6.8,0,11.9-2.6,15.2-7.9c3.3-5.2,5-13.4,5.1-24.4L668,204.9L668,204.9z"/>
	<path d="M740.9,232H728v47h-26V151h41.4c13,0,23,3.4,30.1,10.1c7.1,6.7,10.6,16.3,10.6,28.6c0,17-6.2,28.9-18.6,35.7l22.5,52.4v1.2
		h-27.8L740.9,232z M728,211h14.6c5.1,0,9-1.7,11.6-5.1c2.6-3.4,3.9-8,3.9-13.7c0-12.8-5-19.2-15-19.2H728V211z"/>
	<path d="M825.9,154.7l22.4,81.3c0.3,1,1.7,1,1.9,0l22.3-81.3c0.6-2.2,2.6-3.7,4.9-3.7H907v128h-26v-34.6l2-45
		c0.1-1.2-1.6-1.5-2-0.3l-22.3,76.4c-0.6,2.1-2.6,3.6-4.8,3.6H844c-2.2,0-4.2-1.5-4.8-3.6L816.8,199c-0.3-1.1-2-0.9-2,0.3l2,45.1
		V279h-26V151h30.1C823.4,151,825.4,152.5,825.9,154.7z"/>
</g>
<g>
	<polygon points="603.8,395 627.8,395 615.8,349.4 	"/>
	<path d="M524.1,336H509v38h14.6c5.2,0,9-1.7,11.6-5.1c2.5-3.4,3.8-8,3.9-13.7C539.1,342.4,534.1,336,524.1,336z"/>
	<path d="M807.5,334c-6.9,0-12.1,2.7-15.4,8.2c-3.3,5.5-5,13.8-5.2,25v23c0,11.3,1.7,19.7,5.1,25c3.4,5.4,8.6,8,15.7,8
		c6.8,0,11.9-2.6,15.2-7.9c3.3-5.2,5-13.4,5.1-24.4v-22.3h0c0-11.7-1.7-20.4-5-26.1S814.5,334,807.5,334z"/>
	<path d="M357,286v186h618V286H357z M474.1,389c0,16.8-4.4,30-13.3,39.6c-8.9,9.6-21.1,14.4-36.6,14.4H391V315h33.8
		c14.9,0,26.8,4.7,35.7,14.2s13.4,22.5,13.6,39V389z M640,443l-6.8-26h-35l-5.8,22.3c-0.5,2.2-2.5,3.7-4.8,3.7h-18.8h-4.5h-19.7
		c-2,0-3.8-1.2-4.6-3.1L521.9,396H509v47h-26V315h41.2c12.9,0,22.9,3.4,30,10.1s10.6,16.2,10.6,28.6c0,17-6.1,28.9-18.5,35.7
		l17.9,41.8c0.8,1.7,3.2,1.6,3.8-0.2l34-109c1.3-4.2,5.1-7,9.5-7h9c4.3,0,8.2,2.8,9.5,7l38.1,121H640z M751.7,431.5
		c-4.3,3.8-9.3,6.8-15,9c-7.2,2.7-15.2,4.1-23.8,4.1c-14.7,0-26.1-4.6-34.3-13.8s-12.3-22.5-12.6-40v-23.2c0-17.8,3.9-31.4,11.6-41
		c7.7-9.6,19-14.4,33.7-14.4c13.9,0,24.4,3.5,31.4,10.4c6.1,6,10,14.9,11.7,26.8c0.4,3-1.9,5.7-5,5.7h-19.6
		c-0.7-8.1-2.4-13.7-5.1-16.7c-2.7-3-6.9-4.4-12.6-4.4c-7,0-12,2.5-15.2,7.6c-3.2,5.1-4.8,13.2-4.9,24.3v23.2
		c0,11.7,1.7,20.1,5.2,25.4s9.2,8,17.1,8c5.1,0,9.2-1,12.4-3.1l0.1-0.1c1.3-0.9,2.1-2.5,2.1-4.1V400c0-2.8-2.2-5-5-5h-8
		c-2.8,0-5-2.2-5-5v-15h34c5.5,0,10,4.5,10,10v39h0.1C755,426.8,753.8,429.6,751.7,431.5z M853.1,390.1L853.1,390.1
		c-0.1,17.1-4.1,30.4-12.2,39.9s-19.3,14.2-33.7,14.2c-14.3,0-25.6-4.7-33.7-14.1c-8.2-9.4-12.3-22.5-12.4-39.4v-21.8
		c0-17.5,4.1-31.2,12.2-41c8.1-9.8,19.4-14.8,33.8-14.8c14.2,0,25.4,4.8,33.6,14.5c8.2,9.7,12.3,23.2,12.4,40.7V390.1z M951,443
		h-18.5c-3.9,0-7.5-2.3-9.1-5.9l-33.5-73.9c-0.4-1-1.9-0.7-1.9,0.4V443h-26V315h18.3c3.9,0,7.5,2.3,9.1,5.9l33.7,74
		c0.4,1,1.9,0.7,1.9-0.4V315h26V443z"/>
	<path d="M426.3,336.1H417V421h7.6c8.5,0,14.5-2.3,17.9-6.8c3.5-4.5,5.3-12.4,5.5-23.5v-22.2c0-12-1.6-20.3-4.9-25
		S434.2,336.3,426.3,336.1z"/>
</g>
<g>
	<path d="M387,605V477h33.8c14.9,0,26.8,4.7,35.7,14.2c8.9,9.5,13.4,22.5,13.6,39V551c0,16.8-4.4,30-13.3,39.6S435.7,605,420.2,605
		H387z M413,499v85h7.6c8.5,0,14.5-2.3,17.9-6.8c3.5-4.5,5.3-12.4,5.5-23.5v-22.2c0-12-1.6-20.3-4.9-25s-8.9-7.2-16.8-7.4H413V499z"
		/>
	<path d="M544,550h-40v34h47v21h-73V477h73v22h-47v30h40V550z"/>
	<path d="M610.6,571.8c0-5.2-1.3-9.2-4-11.9s-7.5-5.5-14.6-8.3c-12.9-4.9-22.1-10.6-27.8-17.2c-5.6-6.6-8.5-14.3-8.5-23.2
		c0-10.8,3.8-19.5,11.5-26.1s17.4-9.8,29.2-9.8c7.9,0,14.9,1.7,21.1,5c6.2,3.3,10.9,8,14.2,14.1s5,12.9,5,20.6h-25.8
		c0-6-1.3-10.6-3.8-13.7c-2.6-3.1-6.2-4.7-11.1-4.7c-4.5,0-8.1,1.3-10.6,4s-3.8,6.3-3.8,10.8c0,3.5,1.4,6.7,4.2,9.6
		c2.8,2.9,7.8,5.8,15,8.9c12.5,4.5,21.6,10.1,27.3,16.7c5.7,6.6,8.5,15,8.5,25.1c0,11.2-3.6,19.9-10.7,26.2
		c-7.1,6.3-16.8,9.4-29,9.4c-8.3,0-15.8-1.7-22.7-5.1c-6.8-3.4-12.2-8.3-16-14.6c-3.9-6.3-5.8-13.8-5.8-22.5h26
		c0,7.4,1.4,12.8,4.3,16.1c2.9,3.4,7.6,5,14.1,5C606,586.2,610.6,581.4,610.6,571.8z"/>
	<path d="M671,605h-26V477h26V605z"/>
	<path d="M931.6,571.8c0-5.2-1.3-9.2-4-11.9s-7.5-5.5-14.6-8.3c-12.9-4.9-22.1-10.6-27.8-17.2c-5.6-6.6-8.5-14.3-8.5-23.2
		c0-10.8,3.8-19.5,11.5-26.1s17.4-9.8,29.2-9.8c7.9,0,14.9,1.7,21.1,5c6.2,3.3,10.9,8,14.2,14.1s5,12.9,5,20.6H932
		c0-6-1.3-10.6-3.8-13.7c-2.6-3.1-6.2-4.7-11.1-4.7c-4.5,0-8.1,1.3-10.6,4s-3.8,6.3-3.8,10.8c0,3.5,1.4,6.7,4.2,9.6
		c2.8,2.9,7.8,5.8,15,8.9c12.5,4.5,21.6,10.1,27.3,16.7c5.7,6.6,8.5,15,8.5,25.1c0,11.2-3.6,19.9-10.7,26.2
		c-7.1,6.3-16.8,9.4-29,9.4c-8.3,0-15.8-1.7-22.7-5.1c-6.8-3.4-12.2-8.3-16-14.6c-3.9-6.3-5.8-13.8-5.8-22.5h26
		c0,7.4,1.4,12.8,4.3,16.1c2.9,3.4,7.6,5,14.1,5C927.1,586.2,931.6,581.4,931.6,571.8z"/>
</g>
<path d="M867,606h-18.5c-3.9,0-7.5-2.3-9.1-5.9l-33.5-73.9c-0.4-1-1.9-0.7-1.9,0.4V606h-26V478h18.3c3.9,0,7.5,2.3,9.1,5.9l33.7,74
	c0.4,1,1.9,0.7,1.9-0.4V478h26V606z"/>
<path d="M769,587c0,2.8-1.2,5.6-3.3,7.5c-4.3,3.8-9.3,6.8-15,9c-7.2,2.7-15.2,4.1-23.8,4.1c-14.7,0-26.1-4.6-34.3-13.8
	s-12.3-22.5-12.6-40v-23.2c0-17.8,3.9-31.4,11.6-41c7.7-9.6,19-14.4,33.7-14.4c13.9,0,24.4,3.5,31.4,10.4c6.1,6,10,14.9,11.7,26.8
	c0.4,3-1.9,5.7-5,5.7h-19.6c-0.7-8.1-2.4-13.7-5.1-16.7c-2.7-3-6.9-4.4-12.6-4.4c-7,0-12,2.5-15.2,7.6s-4.8,13.2-4.9,24.3v23.2
	c0,11.7,1.7,20.1,5.2,25.4c3.5,5.3,9.2,8,17.1,8c5.1,0,9.2-1,12.4-3.1l0.1-0.1c1.3-0.9,2.1-2.5,2.1-4.1V563c0-2.8-2.2-5-5-5h-8
	c-2.8,0-5-2.2-5-5v-15h34c5.5,0,10,4.5,10,10L769,587L769,587z"/>
<g>
	<path d="M1005,119v517H327V119H1005 M1035,89h-30H327h-30v30v517v30h30h678h30v-30V119V89L1035,89z"/>
</g>
</svg>
